# xmcd
#
# Track frame offsets: 
#        150
#        12685
#        24356
#        34401
#        46061
#        56466
#        67005
#        79817
#        92241
#        103468
#        113429
#        125851
#        137395
#        149548
#        161428
#        172239
#        182071
#        190477
#        200231
#        212130
#        220861
#        230947
#        243728
#        253728
#        263344
#        272934
#        281724
#        291391
#        303321
#        313385
#
# Disc length: 4311 seconds
#
# Revision: 3
# Processed by: cddbd v1.5.2PL0 Copyright (c) Steve Scherf et al.
# Submitted via: ExactAudioCopyFreeDBPlugin 1.0
#
DISCID=e810d51e
DTITLE=Various Artist - The Cosimo Matassa Story [Volume 1]
DYEAR=2007
DGENRE=Rhythm and Blues
TTITLE0=Little Leo - What's It All About ?
TTITLE1=Little Leo - Handwriting on the Wall
TTITLE2=The Hawketts - Mardi Gras Mambo
TTITLE3=The Hawketts - Your Time's Up
TTITLE4=The Barons - Eternally Yours
TTITLE5=The Barons - Boom Boom
TTITLE6=Shirley and Lee - Feel So Good
TTITLE7=Smiley Lewis - I Hear You Knocking
TTITLE8=Wee Willie Wayne - Travelin' Mood
TTITLE9=Wee Willie Wayne - I Remember
TTITLE10=Little Bo - Baby
TTITLE11=Little Bo - So Glad
TTITLE12=Bernie Williams and The Barons - Why Fool Yourself
TTITLE13=Little Richard - I'm Just a Lonely Guy
TTITLE14=Little Richard - Tutti Frutti
TTITLE15=Ernest Kador - Do Baby Do
TTITLE16=Big Boy Myles and The Sha-weez - Who's Been Fooling You?
TTITLE17=Big Boy Myles and The Sha-weez - That Girl I Married
TTITLE18=Li'l Millett and His Creoles - Rich Woman
TTITLE19=Fats Domino - I'm in Love Again
TTITLE20=Bobby Charles - On Bended Knee
TTITLE21=Bobby Charles - See You Later, Alligator
TTITLE22=Charles "Hungry" Williams - So Glad You're Mine
TTITLE23=Fats Domino - My Blue Heaven
TTITLE24=Bobby Mitchell - Try Rock'n'Roll
TTITLE25=Bobby Mitchell - No No No
TTITLE26=Little Richard - Long Tall Sally
TTITLE27=Little Richard - Slippin' and Slidin'
TTITLE28=Eddie Bo - I'm Wise (Slippin' and Slidin')
TTITLE29=Bobby Charles - Take It Easy, Greasy
EXTD=
EXTT0=
EXTT1=
EXTT2=
EXTT3=
EXTT4=
EXTT5=
EXTT6=
EXTT7=
EXTT8=
EXTT9=
EXTT10=
EXTT11=
EXTT12=
EXTT13=
EXTT14=
EXTT15=
EXTT16=
EXTT17=
EXTT18=
EXTT19=
EXTT20=
EXTT21=
EXTT22=
EXTT23=
EXTT24=
EXTT25=
EXTT26=
EXTT27=
EXTT28=
EXTT29=
PLAYORDER=
